<svg xmlns="http://www.w3.org/2000/svg" width="1145.701" height="106.034" viewBox="0 0 1145.701 106.034">
  <g id="TT_Logo" data-name="TT Logo" transform="translate(-308.583 -334.814)">
    <g id="Group_1" data-name="Group 1">
      <rect id="Rectangle_1" data-name="Rectangle 1" width="119" height="32" rx="1.806" transform="translate(308.583 334.814)" fill="#4f46f8"/>
      <rect id="Rectangle_2" data-name="Rectangle 2" width="68" height="32" rx="1.806" transform="translate(334.083 372.314)" fill="#7a73f9"/>
      <path id="Path_1" data-name="Path 1" d="M353.125,409.814h29.916a1.806,1.806,0,0,1,1.586,2.67l-14.958,27.423a1.806,1.806,0,0,1-3.171,0L351.54,412.484A1.806,1.806,0,0,1,353.125,409.814Z" fill="#ff438c"/>
    </g>
    <path id="Path_25" data-name="Path 25" d="M39.227-59.824V0H24.84V-59.824H1.656V-73.382H62.411v13.559ZM96.153,0a14.386,14.386,0,0,1-.311-2.381q-.1-1.553-.1-3.105A11.858,11.858,0,0,1,89.684-.259a21.325,21.325,0,0,1-8.021,1.6,19.9,19.9,0,0,1-8.228-1.6,18.37,18.37,0,0,1-6.055-4.3A18.145,18.145,0,0,1,63.6-10.919a23.357,23.357,0,0,1-1.294-7.814V-50.923H76.073v29.394a11.769,11.769,0,0,0,2.225,7.3q2.225,2.95,7.09,2.95,4.658,0,7.142-2.795a10.5,10.5,0,0,0,2.484-7.245v-29.6H108.78V-9.212q0,3,.155,5.434T109.3,0Zm58.375-37.26a21.063,21.063,0,0,0-4.14-.414,17.329,17.329,0,0,0-5.072.725,10.347,10.347,0,0,0-4.14,2.381,11.994,11.994,0,0,0-2.846,4.4,18.821,18.821,0,0,0-1.087,6.883V0H123.477V-50.923h13.352v7.556a12.105,12.105,0,0,1,2.95-4.088,13.516,13.516,0,0,1,3.83-2.432,17.715,17.715,0,0,1,4.037-1.139,24.345,24.345,0,0,1,3.674-.311q.828,0,1.6.052t1.6.155ZM164.256,0V-50.923h13.766V0ZM162.6-67.586a8.3,8.3,0,0,1,2.484-6.107,8.179,8.179,0,0,1,6-2.484,8.13,8.13,0,0,1,6.055,2.484,8.392,8.392,0,0,1,2.432,6.107,8.145,8.145,0,0,1-2.432,5.9,8.13,8.13,0,0,1-6.055,2.484,8.179,8.179,0,0,1-6-2.484A8.06,8.06,0,0,1,162.6-67.586ZM206.485,0H192.719V-50.923h13.352v6.314a14.4,14.4,0,0,1,6.469-5.8,19.683,19.683,0,0,1,8.228-1.863,19.45,19.45,0,0,1,8.228,1.6,16.439,16.439,0,0,1,5.744,4.3,17.283,17.283,0,0,1,3.364,6.417,27.957,27.957,0,0,1,1.087,7.866V0H225.425V-29.7A11.546,11.546,0,0,0,223.2-36.95q-2.225-2.9-7.193-2.9a8.557,8.557,0,0,0-7.038,3.053,11.5,11.5,0,0,0-2.484,7.5Zm55.477-.518a11.422,11.422,0,0,0,3.83,6.935,11.885,11.885,0,0,0,8.073,2.691q6.521,0,10.04-3.364t3.519-10.816V-8.8a14.012,14.012,0,0,1-5.072,4.5,18.171,18.171,0,0,1-9.108,2.018,23.656,23.656,0,0,1-9.419-1.863,22.465,22.465,0,0,1-7.5-5.175,24.382,24.382,0,0,1-4.968-7.814,26.248,26.248,0,0,1-1.811-9.884,26.066,26.066,0,0,1,1.76-9.574,25.383,25.383,0,0,1,4.865-7.918,22.451,22.451,0,0,1,7.452-5.382,23.086,23.086,0,0,1,9.626-1.967q6.107,0,9.626,2.174a12.876,12.876,0,0,1,4.865,4.761v-6h13.248V-5.486a33.7,33.7,0,0,1-1.5,10.091,23.28,23.28,0,0,1-4.709,8.487,23.114,23.114,0,0,1-8.28,5.9,30.289,30.289,0,0,1-12.213,2.225,28.883,28.883,0,0,1-9.574-1.5,25.609,25.609,0,0,1-7.5-4.037,20.992,20.992,0,0,1-5.175-5.9,19.109,19.109,0,0,1-2.484-6.986Zm13.662-13.559a11.427,11.427,0,0,0,8.642-3.519q3.364-3.519,3.364-9.419t-3.519-9.367a11.654,11.654,0,0,0-8.487-3.467,12.973,12.973,0,0,0-4.813.88,10.954,10.954,0,0,0-3.881,2.588,12.159,12.159,0,0,0-2.588,4.088,14.373,14.373,0,0,0-.932,5.279q0,6,3.416,9.47A11.812,11.812,0,0,0,275.623-14.076ZM372.4-59.824V0H358.01V-59.824H334.826V-73.382h60.755v13.559Zm55.166,28.566a12.492,12.492,0,0,0-.776-3.674,8.853,8.853,0,0,0-2.07-3.209,10.7,10.7,0,0,0-3.519-2.277,13.058,13.058,0,0,0-5.02-.88,11.494,11.494,0,0,0-4.761.932,11.71,11.71,0,0,0-3.519,2.381,10.534,10.534,0,0,0-2.225,3.209,10.157,10.157,0,0,0-.88,3.519ZM440.4-14.594a21.2,21.2,0,0,1-2.95,6.262,21.651,21.651,0,0,1-4.916,5.123A23.682,23.682,0,0,1,425.752.259a26.87,26.87,0,0,1-8.539,1.294,27.994,27.994,0,0,1-10.04-1.811,24.3,24.3,0,0,1-8.384-5.33,25.552,25.552,0,0,1-5.744-8.591,29.524,29.524,0,0,1-2.122-11.489,28.534,28.534,0,0,1,2.07-11.075,25.8,25.8,0,0,1,5.537-8.435,24.86,24.86,0,0,1,8.021-5.382,24.072,24.072,0,0,1,9.419-1.915q11.9,0,18.527,7.038t6.624,19.355q0,1.449-.1,2.743t-.1,1.5H404.482a10.981,10.981,0,0,0,1.19,4.606,12.805,12.805,0,0,0,2.795,3.674,12.62,12.62,0,0,0,3.985,2.432,13.379,13.379,0,0,0,4.865.88q4.865,0,7.607-2.174a12.366,12.366,0,0,0,3.985-5.589Zm34.466-25.151a13.391,13.391,0,0,0-5.02.932,11.7,11.7,0,0,0-4.088,2.743,13.126,13.126,0,0,0-2.795,4.5,16.913,16.913,0,0,0-1.035,6.107,16.913,16.913,0,0,0,1.035,6.107,13.271,13.271,0,0,0,2.846,4.554,11.882,11.882,0,0,0,4.14,2.795,13.391,13.391,0,0,0,5.02.932,12.764,12.764,0,0,0,4.606-.776,11.756,11.756,0,0,0,3.467-2.018,10.478,10.478,0,0,0,2.329-2.795,13.837,13.837,0,0,0,1.294-3l12.11,4.037a22.213,22.213,0,0,1-2.743,6.262,22.316,22.316,0,0,1-4.916,5.486A24.8,24.8,0,0,1,484.075.052a26,26,0,0,1-9.108,1.5A27.39,27.39,0,0,1,464.461-.466a25.777,25.777,0,0,1-8.539-5.641,26.455,26.455,0,0,1-5.693-8.539,27.6,27.6,0,0,1-2.07-10.816,28.607,28.607,0,0,1,2.018-10.868,25.479,25.479,0,0,1,5.589-8.539,25.873,25.873,0,0,1,8.384-5.589,26.623,26.623,0,0,1,10.4-2.018,26.756,26.756,0,0,1,9.263,1.5,25.387,25.387,0,0,1,7.09,3.881,20.334,20.334,0,0,1,4.865,5.486,23.837,23.837,0,0,1,2.691,6.314l-12.317,4.14a13.955,13.955,0,0,0-3.571-5.9Q479.935-39.744,474.863-39.744ZM522.68,0H508.915V-74.935H522.68v28.256a13.713,13.713,0,0,1,6.314-4.3,23.218,23.218,0,0,1,7.452-1.294,20.444,20.444,0,0,1,8.435,1.6,16.734,16.734,0,0,1,5.9,4.3,17.466,17.466,0,0,1,3.467,6.417,26.774,26.774,0,0,1,1.138,7.866V0H541.621V-29.7A11.546,11.546,0,0,0,539.4-36.95q-2.225-2.9-7.193-2.9A8.594,8.594,0,0,0,525.371-37a11.272,11.272,0,0,0-2.691,7.09Zm60.445,0H569.359V-50.923h13.352v6.314a14.4,14.4,0,0,1,6.469-5.8,19.683,19.683,0,0,1,8.228-1.863,19.45,19.45,0,0,1,8.228,1.6,16.439,16.439,0,0,1,5.744,4.3,17.284,17.284,0,0,1,3.364,6.417,27.957,27.957,0,0,1,1.087,7.866V0H602.066V-29.7a11.546,11.546,0,0,0-2.225-7.245q-2.225-2.9-7.193-2.9a8.557,8.557,0,0,0-7.038,3.053,11.5,11.5,0,0,0-2.484,7.5Zm69.553-10.971a13.243,13.243,0,0,0,4.865-.932,11.591,11.591,0,0,0,4.14-2.743,13.768,13.768,0,0,0,2.846-4.5,16.8,16.8,0,0,0,1.087-6.314,16.8,16.8,0,0,0-1.087-6.314,13.768,13.768,0,0,0-2.846-4.5,11.591,11.591,0,0,0-4.14-2.743,13.243,13.243,0,0,0-4.865-.932,13.243,13.243,0,0,0-4.865.932,11.591,11.591,0,0,0-4.14,2.743,13.768,13.768,0,0,0-2.846,4.5,16.8,16.8,0,0,0-1.087,6.314,16.8,16.8,0,0,0,1.087,6.314,13.768,13.768,0,0,0,2.846,4.5,11.591,11.591,0,0,0,4.14,2.743A13.243,13.243,0,0,0,652.678-10.971Zm0-41.5a27.662,27.662,0,0,1,10.609,2.018,25.6,25.6,0,0,1,8.487,5.589,25.48,25.48,0,0,1,5.589,8.539,28.607,28.607,0,0,1,2.018,10.868,28.216,28.216,0,0,1-2.018,10.816,26.188,26.188,0,0,1-5.589,8.539,25.211,25.211,0,0,1-8.487,5.641,27.662,27.662,0,0,1-10.609,2.018A27.662,27.662,0,0,1,642.069-.466a25.211,25.211,0,0,1-8.487-5.641,26.188,26.188,0,0,1-5.589-8.539,28.216,28.216,0,0,1-2.018-10.816,28.607,28.607,0,0,1,2.018-10.868,25.48,25.48,0,0,1,5.589-8.539,25.6,25.6,0,0,1,8.487-5.589A27.662,27.662,0,0,1,652.678-52.475ZM690.249,0V-74.935h13.766V0Zm51.336-10.971a13.243,13.243,0,0,0,4.865-.932,11.591,11.591,0,0,0,4.14-2.743,13.768,13.768,0,0,0,2.846-4.5,16.8,16.8,0,0,0,1.087-6.314,16.8,16.8,0,0,0-1.087-6.314,13.768,13.768,0,0,0-2.846-4.5,11.591,11.591,0,0,0-4.14-2.743,13.243,13.243,0,0,0-4.865-.932,13.243,13.243,0,0,0-4.865.932,11.591,11.591,0,0,0-4.14,2.743,13.768,13.768,0,0,0-2.846,4.5,16.8,16.8,0,0,0-1.087,6.314,16.8,16.8,0,0,0,1.087,6.314,13.768,13.768,0,0,0,2.846,4.5,11.591,11.591,0,0,0,4.14,2.743A13.243,13.243,0,0,0,741.585-10.971Zm0-41.5a27.662,27.662,0,0,1,10.609,2.018,25.6,25.6,0,0,1,8.487,5.589,25.48,25.48,0,0,1,5.589,8.539,28.607,28.607,0,0,1,2.018,10.868,28.216,28.216,0,0,1-2.018,10.816,26.188,26.188,0,0,1-5.589,8.539,25.211,25.211,0,0,1-8.487,5.641,27.662,27.662,0,0,1-10.609,2.018A27.662,27.662,0,0,1,730.976-.466a25.211,25.211,0,0,1-8.487-5.641,26.188,26.188,0,0,1-5.589-8.539,28.216,28.216,0,0,1-2.018-10.816A28.607,28.607,0,0,1,716.9-36.329a25.48,25.48,0,0,1,5.589-8.539,25.6,25.6,0,0,1,8.487-5.589A27.662,27.662,0,0,1,741.585-52.475ZM787.954-.518a11.422,11.422,0,0,0,3.83,6.935,11.885,11.885,0,0,0,8.073,2.691q6.521,0,10.04-3.364t3.519-10.816V-8.8a14.012,14.012,0,0,1-5.072,4.5,18.171,18.171,0,0,1-9.108,2.018,23.656,23.656,0,0,1-9.419-1.863,22.465,22.465,0,0,1-7.5-5.175,24.382,24.382,0,0,1-4.968-7.814,26.248,26.248,0,0,1-1.811-9.884,26.066,26.066,0,0,1,1.76-9.574,25.384,25.384,0,0,1,4.865-7.918,22.451,22.451,0,0,1,7.452-5.382,23.086,23.086,0,0,1,9.626-1.967q6.107,0,9.626,2.174a12.877,12.877,0,0,1,4.865,4.761v-6h13.248V-5.486a33.7,33.7,0,0,1-1.5,10.091,23.281,23.281,0,0,1-4.709,8.487,23.114,23.114,0,0,1-8.28,5.9,30.288,30.288,0,0,1-12.213,2.225,28.883,28.883,0,0,1-9.574-1.5,25.608,25.608,0,0,1-7.5-4.037,20.991,20.991,0,0,1-5.175-5.9,19.109,19.109,0,0,1-2.484-6.986Zm13.662-13.559a11.427,11.427,0,0,0,8.642-3.519q3.364-3.519,3.364-9.419T810.1-36.381a11.654,11.654,0,0,0-8.487-3.467,12.973,12.973,0,0,0-4.813.88,10.955,10.955,0,0,0-3.881,2.588,12.16,12.16,0,0,0-2.588,4.088,14.375,14.375,0,0,0-.932,5.279q0,6,3.416,9.47A11.812,11.812,0,0,0,801.616-14.076ZM840.946,0V-50.923h13.766V0ZM839.29-67.586a8.3,8.3,0,0,1,2.484-6.107,8.179,8.179,0,0,1,6-2.484,8.13,8.13,0,0,1,6.055,2.484,8.392,8.392,0,0,1,2.432,6.107,8.145,8.145,0,0,1-2.432,5.9,8.13,8.13,0,0,1-6.055,2.484,8.179,8.179,0,0,1-6-2.484A8.06,8.06,0,0,1,839.29-67.586Zm62.929,36.329a12.492,12.492,0,0,0-.776-3.674,8.852,8.852,0,0,0-2.07-3.209,10.7,10.7,0,0,0-3.519-2.277,13.058,13.058,0,0,0-5.02-.88,11.494,11.494,0,0,0-4.761.932,11.71,11.71,0,0,0-3.519,2.381,10.535,10.535,0,0,0-2.225,3.209,10.157,10.157,0,0,0-.88,3.519Zm12.834,16.664a21.2,21.2,0,0,1-2.95,6.262,21.652,21.652,0,0,1-4.916,5.123A23.682,23.682,0,0,1,900.408.259a26.87,26.87,0,0,1-8.539,1.294,27.994,27.994,0,0,1-10.04-1.811,24.3,24.3,0,0,1-8.384-5.33A25.552,25.552,0,0,1,867.7-14.18a29.525,29.525,0,0,1-2.122-11.489,28.534,28.534,0,0,1,2.07-11.075,25.8,25.8,0,0,1,5.537-8.435,24.86,24.86,0,0,1,8.021-5.382,24.072,24.072,0,0,1,9.419-1.915q11.9,0,18.527,7.038t6.624,19.355q0,1.449-.1,2.743t-.1,1.5H879.138a10.98,10.98,0,0,0,1.19,4.606,12.8,12.8,0,0,0,2.795,3.674,12.62,12.62,0,0,0,3.985,2.432,13.38,13.38,0,0,0,4.865.88q4.865,0,7.607-2.174a12.367,12.367,0,0,0,3.985-5.589ZM934.1-16.767a8.473,8.473,0,0,0,2.484,5.382Q938.858-9,943.412-9a7.362,7.362,0,0,0,5.072-1.5,4.663,4.663,0,0,0,1.656-3.571,4.263,4.263,0,0,0-1.242-3.053,8.115,8.115,0,0,0-4.244-1.915L937.927-20.6q-7.452-1.656-10.868-5.744a14.333,14.333,0,0,1-3.416-9.47,14.9,14.9,0,0,1,1.449-6.469,16.179,16.179,0,0,1,3.985-5.279,19.937,19.937,0,0,1,6-3.571,20.857,20.857,0,0,1,7.607-1.346,24.428,24.428,0,0,1,9.108,1.5,18.335,18.335,0,0,1,6.055,3.778,15.863,15.863,0,0,1,3.467,4.813,15.091,15.091,0,0,1,1.346,4.606L951.175-35.19a12.566,12.566,0,0,0-.673-2.329,6.508,6.508,0,0,0-1.5-2.225,7.7,7.7,0,0,0-2.536-1.656,9.621,9.621,0,0,0-3.674-.621,7.412,7.412,0,0,0-4.606,1.449,4.383,4.383,0,0,0-1.915,3.623,3.8,3.8,0,0,0,1.294,3,7.084,7.084,0,0,0,3.364,1.553l7.245,1.553q7.556,1.553,11.333,5.8a14.338,14.338,0,0,1,3.778,9.833,16.436,16.436,0,0,1-1.19,6.107,15.141,15.141,0,0,1-3.674,5.382A18.574,18.574,0,0,1,952.21.1a23.91,23.91,0,0,1-8.694,1.449A25.126,25.126,0,0,1,933.787-.1,20.863,20.863,0,0,1,927.37-4.14,15.88,15.88,0,0,1,923.7-9.263a16.524,16.524,0,0,1-1.4-4.916Z" transform="translate(491 415.354)" fill="#27262b"/>
  </g>
</svg>
